# Blender 4.2.2 LTS
# www.blender.org
mtllib YellowNotePlayer.mtl
o Cylinder
v 0.000000 -0.200000 -1.000000
v 0.000000 -0.100000 -0.750000
v 0.000000 0.200000 -0.750000
v 0.000000 0.200000 -1.000000
v 0.195090 -0.200000 -0.980785
v 0.146318 -0.100000 -0.735589
v 0.195090 0.200000 -0.980785
v 0.146318 0.200000 -0.735589
v 0.382683 -0.200000 -0.923880
v 0.287013 -0.100000 -0.692910
v 0.287013 0.200000 -0.692910
v 0.382683 0.200000 -0.923880
v 0.416678 -0.100000 -0.623602
v 0.555570 -0.200000 -0.831470
v 0.416678 0.200000 -0.623602
v 0.555570 0.200000 -0.831470
v 0.707107 -0.200000 -0.707107
v 0.530330 -0.100000 -0.530330
v 0.707107 0.200000 -0.707107
v 0.530330 0.200000 -0.530330
v 0.831470 -0.200000 -0.555570
v 0.623602 -0.100000 -0.416678
v 0.831470 0.200000 -0.555570
v 0.623602 0.200000 -0.416678
v 0.923880 -0.200000 -0.382683
v 0.692910 -0.100000 -0.287013
v 0.923880 0.200000 -0.382683
v 0.692910 0.200000 -0.287013
v 0.980785 -0.200000 -0.195090
v 0.735589 -0.100000 -0.146318
v 0.980785 0.200000 -0.195090
v 0.735589 0.200000 -0.146318
v 1.000000 -0.200000 0.000000
v 0.750000 -0.100000 0.000000
v 1.000000 0.200000 0.000000
v 0.750000 0.200000 0.000000
v 0.735589 -0.100000 0.146318
v 0.980785 -0.200000 0.195090
v 0.735589 0.200000 0.146318
v 0.980785 0.200000 0.195090
v 0.692910 -0.100000 0.287013
v 0.923880 -0.200000 0.382683
v 0.692910 0.200000 0.287013
v 0.923880 0.200000 0.382683
v 0.623602 -0.100000 0.416678
v 0.831470 -0.200000 0.555570
v 0.623602 0.200000 0.416678
v 0.831470 0.200000 0.555570
v 0.530330 -0.100000 0.530330
v 0.707107 -0.200000 0.707107
v 0.530330 0.200000 0.530330
v 0.706061 0.199851 0.706061
v 0.416678 -0.100000 0.623602
v 0.555570 -0.200000 0.831470
v 0.416678 0.200000 0.623602
v 0.555571 0.200000 0.831471
v 0.287013 -0.100000 0.692910
v 0.382683 -0.200000 0.923880
v 0.382683 0.200000 0.923880
v 0.287013 0.200000 0.692910
v 0.195090 -0.200000 0.980785
v 0.146318 -0.100000 0.735589
v 0.195090 0.200000 0.980785
v 0.146318 0.200000 0.735589
v 0.000000 -0.100000 0.750000
v 0.000000 -0.200000 1.000000
v 0.000000 0.200000 0.750000
v 0.000000 0.200000 1.000000
v -0.146318 -0.100000 0.735589
v -0.195090 -0.200000 0.980785
v -0.146318 0.200000 0.735589
v -0.195090 0.200000 0.980785
v -0.287013 -0.100000 0.692910
v -0.382683 -0.200000 0.923880
v -0.287013 0.200000 0.692910
v -0.382683 0.200000 0.923880
v -0.416678 -0.100000 0.623602
v -0.555570 -0.200000 0.831470
v -0.555570 0.200000 0.831470
v -0.416678 0.200000 0.623602
v -0.707107 -0.200000 0.707107
v -0.530330 -0.100000 0.530330
v -0.530330 0.200000 0.530330
v -0.707107 0.200000 0.707107
v -0.831470 -0.200000 0.555570
v -0.623602 -0.100000 0.416678
v -0.831470 0.200000 0.555570
v -0.623602 0.200000 0.416678
v -0.692910 -0.100000 0.287013
v -0.923880 -0.200000 0.382683
v -0.692910 0.200000 0.287013
v -0.923880 0.200000 0.382683
v -0.735589 -0.100000 0.146318
v -0.980785 -0.200000 0.195090
v -0.735589 0.200000 0.146318
v -0.980785 0.200000 0.195090
v -0.750000 -0.100000 0.000000
v -1.000000 -0.200000 0.000000
v -0.750000 0.200000 0.000000
v -1.000000 0.200000 0.000000
v -0.735589 -0.100000 -0.146318
v -0.980785 -0.200000 -0.195090
v -0.735589 0.200000 -0.146318
v -0.980785 0.200000 -0.195090
v -0.692910 -0.100000 -0.287013
v -0.923880 -0.200000 -0.382683
v -0.692910 0.200000 -0.287013
v -0.923880 0.200000 -0.382683
v -0.623602 -0.100000 -0.416678
v -0.831470 -0.200000 -0.555570
v -0.831470 0.200000 -0.555570
v -0.623602 0.200000 -0.416678
v -0.530330 -0.100000 -0.530330
v -0.707107 -0.200000 -0.707107
v -0.530330 0.200000 -0.530330
v -0.707107 0.200000 -0.707107
v -0.555570 -0.200000 -0.831470
v -0.416678 -0.100000 -0.623602
v -0.555570 0.200000 -0.831470
v -0.416678 0.200000 -0.623602
v -0.382683 -0.200000 -0.923880
v -0.287013 -0.100000 -0.692910
v -0.382683 0.200000 -0.923880
v -0.287013 0.200000 -0.692910
v -0.146318 -0.100000 -0.735589
v -0.195090 -0.200000 -0.980785
v -0.195090 0.200000 -0.980785
v -0.146318 0.200000 -0.735589
vn 0.0980 -0.0000 -0.9952
vn 0.2903 -0.0000 -0.9569
vn 0.4714 -0.0000 -0.8819
vn 0.6344 -0.0000 -0.7730
vn 0.7730 -0.0000 -0.6344
vn 0.8819 -0.0000 -0.4714
vn 0.9569 -0.0000 -0.2903
vn 0.9952 -0.0000 -0.0980
vn 0.9952 -0.0000 0.0980
vn 0.9569 -0.0000 0.2903
vn 0.8819 -0.0000 0.4714
vn 0.7706 0.0018 0.6373
vn 0.6373 0.0018 0.7706
vn 0.4714 -0.0000 0.8819
vn 0.2903 -0.0000 0.9569
vn 0.0980 -0.0000 0.9952
vn -0.0980 -0.0000 0.9952
vn -0.2903 -0.0000 0.9569
vn -0.4714 -0.0000 0.8819
vn -0.6344 -0.0000 0.7730
vn -0.7730 -0.0000 0.6344
vn -0.8819 -0.0000 0.4714
vn -0.9569 -0.0000 0.2903
vn -0.9952 -0.0000 0.0980
vn -0.9952 -0.0000 -0.0980
vn -0.9569 -0.0000 -0.2903
vn -0.8819 -0.0000 -0.4714
vn -0.7730 -0.0000 -0.6344
vn -0.6344 -0.0000 -0.7730
vn -0.4714 -0.0000 -0.8819
vn -0.0000 1.0000 -0.0000
vn -0.2903 -0.0000 -0.9569
vn -0.0980 -0.0000 -0.9952
vn -0.0000 -1.0000 -0.0000
vn -0.0000 -0.0000 1.0000
vn -0.0000 0.9782 0.2077
vn -0.0405 0.9782 0.2037
vn -0.1951 -0.0000 0.9808
vn -0.0795 0.9782 0.1919
vn -0.3827 -0.0000 0.9239
vn -0.1154 0.9782 0.1727
vn -0.5556 -0.0000 0.8315
vn -0.1468 0.9782 0.1468
vn -0.7071 -0.0000 0.7071
vn -0.1727 0.9782 0.1154
vn -0.8315 -0.0000 0.5556
vn -0.9239 -0.0000 0.3827
vn -0.1919 0.9782 0.0795
vn -0.9808 -0.0000 0.1951
vn -0.2037 0.9782 0.0405
vn -0.2077 0.9782 -0.0000
vn -1.0000 -0.0000 -0.0000
vn -0.9808 -0.0000 -0.1951
vn -0.2037 0.9782 -0.0405
vn -0.9239 -0.0000 -0.3827
vn -0.1919 0.9782 -0.0795
vn -0.8315 -0.0000 -0.5556
vn -0.1727 0.9782 -0.1154
vn -0.7071 -0.0000 -0.7071
vn -0.1468 0.9782 -0.1468
vn -0.1154 0.9782 -0.1727
vn -0.5556 -0.0000 -0.8315
vn -0.3827 -0.0000 -0.9239
vn -0.0795 0.9782 -0.1919
vn -0.1951 -0.0000 -0.9808
vn -0.0405 0.9782 -0.2037
vn -0.0000 0.9782 -0.2077
vn -0.0000 -0.0000 -1.0000
vn 0.1951 -0.0000 -0.9808
vn 0.0405 0.9782 -0.2037
vn 0.3827 -0.0000 -0.9239
vn 0.0795 0.9782 -0.1919
vn 0.1154 0.9782 -0.1727
vn 0.5556 -0.0000 -0.8315
vn 0.7071 -0.0000 -0.7071
vn 0.1468 0.9782 -0.1468
vn 0.1727 0.9782 -0.1154
vn 0.8315 -0.0000 -0.5556
vn 0.1919 0.9782 -0.0795
vn 0.9239 -0.0000 -0.3827
vn 0.2037 0.9782 -0.0405
vn 0.9808 -0.0000 -0.1951
vn 0.2077 0.9782 -0.0000
vn 1.0000 -0.0000 -0.0000
vn 0.2037 0.9782 0.0405
vn 0.9808 -0.0000 0.1951
vn 0.1919 0.9782 0.0795
vn 0.9239 -0.0000 0.3827
vn 0.1727 0.9782 0.1154
vn 0.8315 -0.0000 0.5556
vn 0.1468 0.9782 0.1468
vn 0.7071 -0.0000 0.7071
vn 0.1154 0.9782 0.1727
vn 0.5556 -0.0000 0.8315
vn 0.0795 0.9782 0.1919
vn 0.3827 -0.0000 0.9239
vn 0.0405 0.9782 0.2037
vn 0.1951 -0.0000 0.9808
vt 1.000000 0.500000
vt 1.000000 1.000000
vt 0.968750 1.000000
vt 0.968750 0.500000
vt 0.937500 1.000000
vt 0.937500 0.500000
vt 0.906250 1.000000
vt 0.906250 0.500000
vt 0.875000 1.000000
vt 0.875000 0.500000
vt 0.843750 1.000000
vt 0.843750 0.500000
vt 0.812500 1.000000
vt 0.812500 0.500000
vt 0.781250 1.000000
vt 0.781250 0.500000
vt 0.750000 1.000000
vt 0.750000 0.500000
vt 0.718750 1.000000
vt 0.718750 0.500000
vt 0.687500 1.000000
vt 0.687500 0.500000
vt 0.656250 1.000000
vt 0.656250 0.500000
vt 0.625000 1.000000
vt 0.625000 0.500000
vt 0.593750 1.000000
vt 0.593750 0.500000
vt 0.562500 1.000000
vt 0.562500 0.500000
vt 0.531250 1.000000
vt 0.531250 0.500000
vt 0.500000 1.000000
vt 0.500000 0.500000
vt 0.468750 1.000000
vt 0.468750 0.500000
vt 0.437500 1.000000
vt 0.437500 0.500000
vt 0.406250 1.000000
vt 0.406250 0.500000
vt 0.375000 1.000000
vt 0.375000 0.500000
vt 0.343750 1.000000
vt 0.343750 0.500000
vt 0.312500 1.000000
vt 0.312500 0.500000
vt 0.281250 1.000000
vt 0.281250 0.500000
vt 0.250000 1.000000
vt 0.250000 0.500000
vt 0.218750 1.000000
vt 0.218750 0.500000
vt 0.187500 1.000000
vt 0.187500 0.500000
vt 0.156250 1.000000
vt 0.156250 0.500000
vt 0.125000 1.000000
vt 0.125000 0.500000
vt 0.093750 1.000000
vt 0.093750 0.500000
vt 0.062500 1.000000
vt 0.062500 0.500000
vt 0.100337 0.149996
vt 0.083703 0.181115
vt 0.028269 0.158156
vt 0.050447 0.116663
vt 0.080294 0.080294
vt 0.116663 0.050447
vt 0.158156 0.028269
vt 0.203178 0.014612
vt 0.250000 0.010000
vt 0.296822 0.014612
vt 0.341844 0.028269
vt 0.383337 0.050447
vt 0.419706 0.080294
vt 0.449553 0.116663
vt 0.471731 0.158156
vt 0.416316 0.181099
vt 0.399705 0.149957
vt 0.377340 0.122660
vt 0.350043 0.100295
vt 0.318901 0.083684
vt 0.285125 0.073450
vt 0.250005 0.069995
vt 0.214888 0.073455
vt 0.181120 0.083699
vt 0.150000 0.100333
vt 0.122723 0.122719
vt 0.485388 0.203178
vt 0.490000 0.250000
vt 0.485388 0.296822
vt 0.471731 0.341844
vt 0.449553 0.383337
vt 0.419706 0.419706
vt 0.383337 0.449553
vt 0.341844 0.471731
vt 0.296822 0.485388
vt 0.250000 0.490000
vt 0.203178 0.485388
vt 0.158156 0.471731
vt 0.116663 0.449553
vt 0.080294 0.419706
vt 0.050447 0.383337
vt 0.028269 0.341844
vt 0.014612 0.296822
vt 0.010000 0.250000
vt 0.014612 0.203178
vt 0.073460 0.214882
vt 0.070001 0.249999
vt 0.073460 0.285115
vt 0.083703 0.318882
vt 0.100337 0.350001
vt 0.122722 0.377278
vt 0.149999 0.399663
vt 0.181118 0.416297
vt 0.214885 0.426540
vt 0.250001 0.429998
vt 0.285118 0.426540
vt 0.318885 0.416297
vt 0.350004 0.399663
vt 0.377281 0.377277
vt 0.399667 0.350000
vt 0.416301 0.318880
vt 0.426545 0.285112
vt 0.430005 0.249995
vt 0.426550 0.214875
vt 0.031250 1.000000
vt 0.031250 0.500000
vt 0.000000 1.000000
vt 0.000000 0.500000
vt 0.703178 0.485388
vt 0.750000 0.490000
vt 0.796822 0.485388
vt 0.841844 0.471731
vt 0.883337 0.449553
vt 0.919706 0.419706
vt 0.949553 0.383337
vt 0.971731 0.341844
vt 0.985388 0.296822
vt 0.990000 0.250000
vt 0.985388 0.203178
vt 0.971731 0.158156
vt 0.949553 0.116663
vt 0.919706 0.080294
vt 0.883337 0.050447
vt 0.841844 0.028269
vt 0.796822 0.014612
vt 0.750000 0.010000
vt 0.703178 0.014612
vt 0.658156 0.028269
vt 0.616663 0.050447
vt 0.580294 0.080294
vt 0.550447 0.116663
vt 0.528269 0.158156
vt 0.514612 0.203178
vt 0.510000 0.250000
vt 0.514612 0.296822
vt 0.528269 0.341844
vt 0.550447 0.383337
vt 0.580294 0.419706
vt 0.616663 0.449553
vt 0.658156 0.471731
s 0
usemtl Blue_Notes
f 1/1/1 4/2/1 7/3/1 5/4/1
f 5/4/2 7/3/2 12/5/2 9/6/2
f 9/6/3 12/5/3 16/7/3 14/8/3
f 14/8/4 16/7/4 19/9/4 17/10/4
f 17/10/5 19/9/5 23/11/5 21/12/5
f 21/12/6 23/11/6 27/13/6 25/14/6
f 25/14/7 27/13/7 31/15/7 29/16/7
f 29/16/8 31/15/8 35/17/8 33/18/8
f 33/18/9 35/17/9 40/19/9 38/20/9
f 38/20/10 40/19/10 44/21/10 42/22/10
f 42/22/11 44/21/11 48/23/11 46/24/11
f 46/24/12 48/23/12 52/25/12 50/26/12
f 50/26/13 52/25/13 56/27/13 54/28/13
f 54/28/14 56/27/14 59/29/14 58/30/14
f 58/30/15 59/29/15 63/31/15 61/32/15
f 61/32/16 63/31/16 68/33/16 66/34/16
f 66/34/17 68/33/17 72/35/17 70/36/17
f 70/36/18 72/35/18 76/37/18 74/38/18
f 74/38/19 76/37/19 79/39/19 78/40/19
f 78/40/20 79/39/20 84/41/20 81/42/20
f 81/42/21 84/41/21 87/43/21 85/44/21
f 85/44/22 87/43/22 92/45/22 90/46/22
f 90/46/23 92/45/23 96/47/23 94/48/23
f 94/48/24 96/47/24 100/49/24 98/50/24
f 98/50/25 100/49/25 104/51/25 102/52/25
f 102/52/26 104/51/26 108/53/26 106/54/26
f 106/54/27 108/53/27 111/55/27 110/56/27
f 110/56/28 111/55/28 116/57/28 114/58/28
f 114/58/29 116/57/29 119/59/29 117/60/29
f 117/60/30 119/59/30 123/61/30 121/62/30
f 88/63/31 91/64/31 92/65/31 87/66/31 84/67/31 79/68/31 76/69/31 72/70/31 68/71/31 63/72/31 59/73/31 56/74/31 52/75/31 48/76/31 44/77/31 43/78/31 47/79/31 51/80/31 55/81/31 60/82/31 64/83/31 67/84/31 71/85/31 75/86/31 80/87/31 83/88/31
f 44/77/31 40/89/31 35/90/31 31/91/31 27/92/31 23/93/31 19/94/31 16/95/31 12/96/31 7/97/31 4/98/31 127/99/31 123/100/31 119/101/31 116/102/31 111/103/31 108/104/31 104/105/31 100/106/31 96/107/31 92/65/31 91/64/31 95/108/31 99/109/31 103/110/31 107/111/31 112/112/31 115/113/31 120/114/31 124/115/31 128/116/31 3/117/31 8/118/31 11/119/31 15/120/31 20/121/31 24/122/31 28/123/31 32/124/31 36/125/31 39/126/31 43/78/31
f 121/62/32 123/61/32 127/127/32 126/128/32
f 126/128/33 127/127/33 4/129/33 1/130/33
f 126/131/34 1/132/34 5/133/34 9/134/34 14/135/34 17/136/34 21/137/34 25/138/34 29/139/34 33/140/34 38/141/34 42/142/34 46/143/34 50/144/34 54/145/34 58/146/34 61/147/34 66/148/34 70/149/34 74/150/34 78/151/34 81/152/34 85/153/34 90/154/34 94/155/34 98/156/34 102/157/34 106/158/34 110/159/34 114/160/34 117/161/34 121/162/34
s 1
f 3/2/35 2/1/36 6/4/37 8/3/38
f 8/3/38 6/4/37 10/6/39 11/5/40
f 11/5/40 10/6/39 13/8/41 15/7/42
f 15/7/42 13/8/41 18/10/43 20/9/44
f 18/10/43 22/12/45 24/11/46 20/9/44
f 28/13/47 24/11/46 22/12/45 26/14/48
f 32/15/49 28/13/47 26/14/48 30/16/50
f 30/16/50 34/18/51 36/17/52 32/15/49
f 39/19/53 36/17/52 34/18/51 37/20/54
f 43/21/55 39/19/53 37/20/54 41/22/56
f 47/23/57 43/21/55 41/22/56 45/24/58
f 51/25/59 47/23/57 45/24/58 49/26/60
f 49/26/60 53/28/61 55/27/62 51/25/59
f 60/29/63 55/27/62 53/28/61 57/30/64
f 64/31/65 60/29/63 57/30/64 62/32/66
f 62/32/66 65/34/67 67/33/68 64/31/65
f 71/35/69 67/33/68 65/34/67 69/36/70
f 75/37/71 71/35/69 69/36/70 73/38/72
f 73/38/72 77/40/73 80/39/74 75/37/71
f 83/41/75 80/39/74 77/40/73 82/42/76
f 83/41/75 82/42/76 86/44/77 88/43/78
f 88/43/78 86/44/77 89/46/79 91/45/80
f 91/45/80 89/46/79 93/48/81 95/47/82
f 95/47/82 93/48/81 97/50/83 99/49/84
f 99/49/84 97/50/83 101/52/85 103/51/86
f 103/51/86 101/52/85 105/54/87 107/53/88
f 107/53/88 105/54/87 109/56/89 112/55/90
f 112/55/90 109/56/89 113/58/91 115/57/92
f 115/57/92 113/58/91 118/60/93 120/59/94
f 120/59/94 118/60/93 122/62/95 124/61/96
f 124/61/96 122/62/95 125/128/97 128/127/98
f 128/127/98 125/128/97 2/130/36 3/129/35
f 118/161/93 113/160/91 109/159/89 105/158/87 101/157/85 97/156/83 93/155/81 89/154/79 86/153/77 82/152/76 77/151/73 73/150/72 69/149/70 65/148/67 62/147/66 57/146/64 53/145/61 49/144/60 45/143/58 41/142/56 37/141/54 34/140/51 30/139/50 26/138/48 22/137/45 18/136/43 13/135/41 10/134/39 6/133/37 2/132/36 125/131/97 122/162/95
